<svg width="43" height="43" viewBox="0 0 43 43" fill="none" xmlns="http://www.w3.org/2000/svg">
<path d="M21.0186 12.2612V36.7825" stroke="#2E7D32" stroke-width="3.50304" stroke-linecap="round" stroke-linejoin="round"/>
<path d="M5.25445 31.5277C4.78992 31.5277 4.34441 31.3432 4.01594 31.0147C3.68746 30.6862 3.50293 30.2407 3.50293 29.7762V7.0064C3.50293 6.54187 3.68746 6.09636 4.01594 5.76789C4.34441 5.43942 4.78992 5.25488 5.25445 5.25488H14.0121C15.8702 5.25488 17.6522 5.99302 18.9661 7.30692C20.28 8.62081 21.0181 10.4028 21.0181 12.261C21.0181 10.4028 21.7563 8.62081 23.0702 7.30692C24.3841 5.99302 26.1661 5.25488 28.0242 5.25488H36.7818C37.2464 5.25488 37.6919 5.43942 38.0203 5.76789C38.3488 6.09636 38.5333 6.54187 38.5333 7.0064V29.7762C38.5333 30.2407 38.3488 30.6862 38.0203 31.0147C37.6919 31.3432 37.2464 31.5277 36.7818 31.5277H26.2727C24.8791 31.5277 23.5426 32.0813 22.5572 33.0667C21.5717 34.0521 21.0181 35.3887 21.0181 36.7822C21.0181 35.3887 20.4645 34.0521 19.4791 33.0667C18.4937 32.0813 17.1572 31.5277 15.7636 31.5277H5.25445Z" stroke="#2E7D32" stroke-width="3.50304" stroke-linecap="round" stroke-linejoin="round"/>
</svg>
